<?xml version="1.0" encoding="UTF-8"?>
<!DOCTYPE svg PUBLIC "-//W3C//DTD SVG 1.0//EN" "http://www.w3.org/TR/2001/REC-SVG-20010904/DTD/svg10.dtd">
<!-- Creator: CorelDRAW X8 -->
<svg xmlns="http://www.w3.org/2000/svg" xml:space="preserve" width="110px" height="101px" version="1.0" shape-rendering="geometricPrecision" text-rendering="geometricPrecision" image-rendering="optimizeQuality" fill-rule="evenodd" clip-rule="evenodd"
viewBox="0 0 9020841 8284506"
 xmlns:xlink="http://www.w3.org/1999/xlink">
 <defs>
   <radialGradient id="id0" gradientUnits="userSpaceOnUse" gradientTransform="matrix(-1.49183 -1.82696E-16 1.82697E-16 -1.49183 1.35467E+07 6.36279E+06)" cx="5.43644e+06" cy="2.55346e+06" r="6.42098e+06" fx="5.43644e+06" fy="2.55346e+06">
    <stop offset="0" stop-opacity="1" stop-color="#DBE285"/>
    <stop offset="1" stop-opacity="1" stop-color="#FFED00"/>
   </radialGradient>
    <linearGradient id="id1" gradientUnits="userSpaceOnUse" x1="155251" y1="5.72415e+06" x2="2.3092e+06" y2="5.47348e+06">
     <stop offset="0" stop-opacity="1" stop-color="#52A315"/>
     <stop offset="1" stop-opacity="1" stop-color="#377C2B"/>
    </linearGradient>
    <linearGradient id="id2" gradientUnits="userSpaceOnUse" x1="61649.9" y1="5.34675e+06" x2="2.06812e+06" y2="5.11324e+06">
     <stop offset="0" stop-opacity="1" stop-color="#5BBF0F"/>
     <stop offset="1" stop-opacity="1" stop-color="#294716"/>
    </linearGradient>
    <linearGradient id="id3" gradientUnits="userSpaceOnUse" x1="598813" y1="5.04313e+06" x2="2.18117e+06" y2="4.85898e+06">
     <stop offset="0" stop-opacity="1" stop-color="#50C10F"/>
     <stop offset="1" stop-opacity="1" stop-color="#109739"/>
    </linearGradient>
    <linearGradient id="id4" gradientUnits="userSpaceOnUse" x1="2.4374e+06" y1="3.22221e+06" x2="1.53154e+06" y2="3.62785e+06">
     <stop offset="0" stop-opacity="1" stop-color="#004B2F"/>
     <stop offset="0.0509804" stop-opacity="1" stop-color="#004B2F"/>
     <stop offset="0.219608" stop-opacity="1" stop-color="#12861D"/>
     <stop offset="0.411765" stop-opacity="1" stop-color="#79B32B"/>
     <stop offset="0.678431" stop-opacity="1" stop-color="#168B1C"/>
     <stop offset="0.858824" stop-opacity="1" stop-color="#0E5E14"/>
     <stop offset="1" stop-opacity="1" stop-color="#055228"/>
    </linearGradient>
    <linearGradient id="id5" gradientUnits="userSpaceOnUse" x1="2.39477e+06" y1="2.93405e+06" x2="1.19115e+06" y2="3.47302e+06">
     <stop offset="0" stop-opacity="1" stop-color="#004B2F"/>
     <stop offset="0.0509804" stop-opacity="1" stop-color="#004B2F"/>
     <stop offset="0.219608" stop-opacity="1" stop-color="#12861D"/>
     <stop offset="0.411765" stop-opacity="1" stop-color="#79B32B"/>
     <stop offset="0.678431" stop-opacity="1" stop-color="#168B1C"/>
     <stop offset="0.858824" stop-opacity="1" stop-color="#0E5E14"/>
     <stop offset="1" stop-opacity="1" stop-color="#055228"/>
    </linearGradient>
    <linearGradient id="id6" gradientUnits="userSpaceOnUse" x1="2.47942e+06" y1="2.6764e+06" x2="769624" y2="3.44204e+06">
     <stop offset="0" stop-opacity="1" stop-color="#004B2F"/>
     <stop offset="0.0509804" stop-opacity="1" stop-color="#004B2F"/>
     <stop offset="0.219608" stop-opacity="1" stop-color="#12861D"/>
     <stop offset="0.411765" stop-opacity="1" stop-color="#79B32B"/>
     <stop offset="0.678431" stop-opacity="1" stop-color="#168B1C"/>
     <stop offset="0.858824" stop-opacity="1" stop-color="#0E5E14"/>
     <stop offset="1" stop-opacity="1" stop-color="#055228"/>
    </linearGradient>
    <linearGradient id="id7" gradientUnits="userSpaceOnUse" x1="2.63006e+06" y1="2.58415e+06" x2="1.02814e+06" y2="3.30149e+06">
     <stop offset="0" stop-opacity="1" stop-color="#004B2F"/>
     <stop offset="0.0509804" stop-opacity="1" stop-color="#004B2F"/>
     <stop offset="0.219608" stop-opacity="1" stop-color="#12861D"/>
     <stop offset="0.411765" stop-opacity="1" stop-color="#79B32B"/>
     <stop offset="0.678431" stop-opacity="1" stop-color="#168B1C"/>
     <stop offset="0.858824" stop-opacity="1" stop-color="#0E5E14"/>
     <stop offset="1" stop-opacity="1" stop-color="#055228"/>
    </linearGradient>
    <linearGradient id="id8" gradientUnits="userSpaceOnUse" x1="2.95212e+06" y1="3.04052e+06" x2="2.48265e+06" y2="3.25074e+06">
     <stop offset="0" stop-opacity="1" stop-color="#004B2F"/>
     <stop offset="0.0509804" stop-opacity="1" stop-color="#004B2F"/>
     <stop offset="0.219608" stop-opacity="1" stop-color="#12861D"/>
     <stop offset="0.411765" stop-opacity="1" stop-color="#79B32B"/>
     <stop offset="0.678431" stop-opacity="1" stop-color="#168B1C"/>
     <stop offset="0.858824" stop-opacity="1" stop-color="#0E5E14"/>
     <stop offset="1" stop-opacity="1" stop-color="#055228"/>
    </linearGradient>
    <linearGradient id="id9" gradientUnits="userSpaceOnUse" x1="5.11684e+06" y1="3.08568e+06" x2="4.13676e+06" y2="5.75715e+06">
     <stop offset="0" stop-opacity="1" stop-color="#47B511"/>
     <stop offset="1" stop-opacity="1" stop-color="#3C7E27"/>
    </linearGradient>
   <linearGradient id="id10" gradientUnits="userSpaceOnUse" x1="2.54537e+06" y1="3.04093e+06" x2="2.54981e+06" y2="5.87734e+06">
    <stop offset="0" stop-opacity="1" stop-color="#47B511"/>
    <stop offset="1" stop-opacity="1" stop-color="#3C7E27"/>
   </linearGradient>
   <linearGradient id="id11" gradientUnits="userSpaceOnUse" x1="2.05216e+06" y1="86198.2" x2="5.01426e+06" y2="6.50702e+06">
    <stop offset="0" stop-opacity="1" stop-color="#FF610F"/>
    <stop offset="0.239216" stop-opacity="1" stop-color="#DF4C19"/>
    <stop offset="0.611765" stop-opacity="1" stop-color="#E31E24"/>
    <stop offset="1" stop-opacity="1" stop-color="#6B1B15"/>
   </linearGradient>
   <linearGradient id="id12" gradientUnits="userSpaceOnUse" x1="4.62806e+06" y1="566281" x2="4.03702e+06" y2="1.19261e+06">
    <stop offset="0" stop-opacity="1" stop-color="#0C9A1D"/>
    <stop offset="1" stop-opacity="1" stop-color="#00532B"/>
   </linearGradient>
   <linearGradient id="id13" gradientUnits="userSpaceOnUse" x1="3.0408e+06" y1="200204" x2="4.27826e+06" y2="1.28685e+06">
    <stop offset="0" stop-opacity="1" stop-color="#E53825"/>
    <stop offset="0.768627" stop-opacity="1" stop-color="#F25519"/>
    <stop offset="1" stop-opacity="1" stop-color="#FF730C"/>
   </linearGradient>
   <linearGradient id="id14" gradientUnits="userSpaceOnUse" x1="3.47797e+06" y1="1.87456e+06" x2="3.6444e+06" y2="2.76923e+06">
    <stop offset="0" stop-opacity="1" stop-color="#F61F17"/>
    <stop offset="1" stop-opacity="1" stop-color="#AE251D"/>
   </linearGradient>
   <radialGradient id="id15" gradientUnits="userSpaceOnUse" gradientTransform="matrix(1.65954 -0.120652 0.120651 1.65953 -2.5003E+06 -742760)" cx="3.46887e+06" cy="1.76078e+06" r="378613" fx="3.46887e+06" fy="1.76078e+06">
    <stop offset="0" stop-opacity="1" stop-color="#434242"/>
    <stop offset="0.521569" stop-opacity="1" stop-color="#2F2E2C"/>
    <stop offset="1" stop-opacity="1" stop-color="#1C1B17"/>
   </radialGradient>
   <radialGradient id="id16" gradientUnits="userSpaceOnUse" gradientTransform="matrix(1.26007 -0.0856936 0.0856924 1.26005 -990778 102606)" cx="3.55382e+06" cy="776519" r="197242" fx="3.55382e+06" fy="776519">
    <stop offset="0" stop-opacity="1" stop-color="#FC7C45"/>
    <stop offset="0.690196" stop-opacity="1" stop-color="#C05B3A"/>
    <stop offset="1" stop-opacity="1" stop-color="#A34B39"/>
   </radialGradient>
   <linearGradient id="id17" gradientUnits="userSpaceOnUse" x1="2.22804e+06" y1="1.04735e+06" x2="3.57568e+06" y2="948945">
    <stop offset="0" stop-opacity="1" stop-color="#2B2A29"/>
    <stop offset="1" stop-opacity="1" stop-color="#332D29"/>
   </linearGradient>
   <linearGradient id="id18" gradientUnits="userSpaceOnUse" x1="2.99766e+06" y1="285814" x2="2.27102e+06" y2="1.30923e+06">
    <stop offset="0" stop-opacity="1" stop-color="#4C4B4B"/>
    <stop offset="1" stop-opacity="1" stop-color="#6B6564"/>
   </linearGradient>
   <radialGradient id="id19" gradientUnits="userSpaceOnUse" gradientTransform="matrix(1.38333 0.241975 -0.241974 1.38332 -2.179E+06 -3.40857E+06)" cx="8.07851e+06" cy="3.79255e+06" r="1.06125e+06" fx="8.07851e+06" fy="3.79255e+06">
    <stop offset="0" stop-opacity="1" stop-color="#5AB32F"/>
    <stop offset="1" stop-opacity="1" stop-color="#2CA136"/>
   </radialGradient>
   <radialGradient id="id20" gradientUnits="userSpaceOnUse" gradientTransform="matrix(1.18483 0.207253 -0.207253 1.18483 -801063 -1.77539E+06)" cx="6.6915e+06" cy="2.10227e+06" r="1.45114e+06" fx="6.6915e+06" fy="2.10227e+06">
    <stop offset="0" stop-opacity="1" stop-color="#5AB32F"/>
    <stop offset="1" stop-opacity="1" stop-color="#2CA136"/>
   </radialGradient>
    <linearGradient id="id21" gradientUnits="userSpaceOnUse" x1="6.79826e+06" y1="2.13608e+06" x2="6.69519e+06" y2="2.40507e+06">
     <stop offset="0" stop-opacity="1" stop-color="#8F634B"/>
     <stop offset="1" stop-opacity="1" stop-color="#D19676"/>
    </linearGradient>
    <linearGradient id="id22" gradientUnits="userSpaceOnUse" x1="6.69852e+06" y1="2.35053e+06" x2="6.59544e+06" y2="2.61951e+06">
     <stop offset="0" stop-opacity="1" stop-color="#8F634B"/>
     <stop offset="1" stop-opacity="1" stop-color="#D19676"/>
    </linearGradient>
    <linearGradient id="id23" gradientUnits="userSpaceOnUse" x1="6.57613e+06" y1="2.57542e+06" x2="6.4508e+06" y2="2.85746e+06">
     <stop offset="0" stop-opacity="1" stop-color="#8F634B"/>
     <stop offset="1" stop-opacity="1" stop-color="#D19676"/>
    </linearGradient>
    <linearGradient id="id24" gradientUnits="userSpaceOnUse" x1="6.44e+06" y1="2.79405e+06" x2="6.31467e+06" y2="3.07609e+06">
     <stop offset="0" stop-opacity="1" stop-color="#8F634B"/>
     <stop offset="1" stop-opacity="1" stop-color="#D19676"/>
    </linearGradient>
    <linearGradient id="id25" gradientUnits="userSpaceOnUse" x1="6.308e+06" y1="3.02207e+06" x2="6.1791e+06" y2="3.31213e+06">
     <stop offset="0" stop-opacity="1" stop-color="#8F634B"/>
     <stop offset="1" stop-opacity="1" stop-color="#D19676"/>
    </linearGradient>
    <linearGradient id="id26" gradientUnits="userSpaceOnUse" x1="6.17551e+06" y1="3.25715e+06" x2="6.04661e+06" y2="3.5472e+06">
     <stop offset="0" stop-opacity="1" stop-color="#8F634B"/>
     <stop offset="1" stop-opacity="1" stop-color="#D19676"/>
    </linearGradient>
    <linearGradient id="id27" gradientUnits="userSpaceOnUse" x1="6.03757e+06" y1="3.49372e+06" x2="5.89219e+06" y2="3.77611e+06">
     <stop offset="0" stop-opacity="1" stop-color="#8F634B"/>
     <stop offset="1" stop-opacity="1" stop-color="#D19676"/>
    </linearGradient>
    <linearGradient id="id28" gradientUnits="userSpaceOnUse" x1="5.89516e+06" y1="3.70493e+06" x2="5.74977e+06" y2="3.98731e+06">
     <stop offset="0" stop-opacity="1" stop-color="#8F634B"/>
     <stop offset="1" stop-opacity="1" stop-color="#D19676"/>
    </linearGradient>
   <linearGradient id="id29" gradientUnits="userSpaceOnUse" x1="6.04333e+06" y1="3.39688e+06" x2="5.86126e+06" y2="4.57765e+06">
    <stop offset="0" stop-opacity="1" stop-color="#025331"/>
    <stop offset="1" stop-opacity="1" stop-color="#017639"/>
   </linearGradient>
    <linearGradient id="id30" gradientUnits="userSpaceOnUse" x1="8.07215e+06" y1="3.6448e+06" x2="7.87683e+06" y2="3.8066e+06">
     <stop offset="0" stop-opacity="1" stop-color="#8F634B"/>
     <stop offset="1" stop-opacity="1" stop-color="#D19676"/>
    </linearGradient>
    <linearGradient id="id31" gradientUnits="userSpaceOnUse" x1="7.93623e+06" y1="3.73084e+06" x2="7.74855e+06" y2="3.90103e+06">
     <stop offset="0" stop-opacity="1" stop-color="#8F634B"/>
     <stop offset="1" stop-opacity="1" stop-color="#D19676"/>
    </linearGradient>
    <linearGradient id="id32" gradientUnits="userSpaceOnUse" x1="7.78759e+06" y1="3.8516e+06" x2="7.5906e+06" y2="4.03798e+06">
     <stop offset="0" stop-opacity="1" stop-color="#8F634B"/>
     <stop offset="1" stop-opacity="1" stop-color="#D19676"/>
    </linearGradient>
    <linearGradient id="id33" gradientUnits="userSpaceOnUse" x1="7.61478e+06" y1="3.97777e+06" x2="7.42649e+06" y2="4.17252e+06">
     <stop offset="0" stop-opacity="1" stop-color="#8F634B"/>
     <stop offset="1" stop-opacity="1" stop-color="#D19676"/>
    </linearGradient>
    <linearGradient id="id34" gradientUnits="userSpaceOnUse" x1="7.45412e+06" y1="4.09041e+06" x2="7.28091e+06" y2="4.30778e+06">
     <stop offset="0" stop-opacity="1" stop-color="#8F634B"/>
     <stop offset="1" stop-opacity="1" stop-color="#D19676"/>
    </linearGradient>
    <linearGradient id="id35" gradientUnits="userSpaceOnUse" x1="7.14164e+06" y1="4.44025e+06" x2="7.00139e+06" y2="4.67921e+06">
     <stop offset="0" stop-opacity="1" stop-color="#8F634B"/>
     <stop offset="1" stop-opacity="1" stop-color="#D19676"/>
    </linearGradient>
   <linearGradient id="id36" gradientUnits="userSpaceOnUse" x1="7.17038e+06" y1="3.97197e+06" x2="6.95136e+06" y2="4.95669e+06">
    <stop offset="0" stop-opacity="1" stop-color="#024B30"/>
    <stop offset="1" stop-opacity="1" stop-color="#007D3B"/>
   </linearGradient>
     <linearGradient id="id37" gradientUnits="userSpaceOnUse" x1="4.47697e+06" y1="6.26086e+06" x2="4.47711e+06" y2="2.02053e+06">
      <stop offset="0" stop-opacity="1" stop-color="#005298"/>
      <stop offset="0.2" stop-opacity="1" stop-color="#006FB6"/>
      <stop offset="1" stop-opacity="1" stop-color="#008DD5"/>
     </linearGradient>
     <linearGradient id="id38" gradientUnits="userSpaceOnUse" x1="4.55665e+06" y1="5.56459e+06" x2="4.55679e+06" y2="1.23479e+06">
      <stop offset="0" stop-opacity="1" stop-color="#005298"/>
      <stop offset="0.2" stop-opacity="1" stop-color="#006FB6"/>
      <stop offset="1" stop-opacity="1" stop-color="#008DD5"/>
     </linearGradient>
    <linearGradient id="id39" gradientUnits="userSpaceOnUse" x1="4.3577e+06" y1="8.35059e+06" x2="4.28821e+06" y2="6.66641e+06">
     <stop offset="0" stop-opacity="1" stop-color="#ED6E1E"/>
     <stop offset="0.721569" stop-opacity="1" stop-color="#DF5020"/>
     <stop offset="1" stop-opacity="1" stop-color="#D03123"/>
    </linearGradient>
    <linearGradient id="id40" gradientUnits="userSpaceOnUse" x1="4.77111e+06" y1="8.43121e+06" x2="4.69498e+06" y2="6.57945e+06">
     <stop offset="0" stop-opacity="1" stop-color="#ED6E1E"/>
     <stop offset="0.721569" stop-opacity="1" stop-color="#DF5020"/>
     <stop offset="1" stop-opacity="1" stop-color="#D03123"/>
    </linearGradient>
    <linearGradient id="id41" gradientUnits="userSpaceOnUse" x1="4.81442e+06" y1="9.1403e+06" x2="4.7217e+06" y2="7.23766e+06">
     <stop offset="0" stop-opacity="1" stop-color="#ED6E1E"/>
     <stop offset="0.721569" stop-opacity="1" stop-color="#DF5020"/>
     <stop offset="1" stop-opacity="1" stop-color="#D03123"/>
    </linearGradient>
    <linearGradient id="id42" gradientUnits="userSpaceOnUse" x1="5.22538e+06" y1="9.26761e+06" x2="5.13142e+06" y2="7.25098e+06">
     <stop offset="0" stop-opacity="1" stop-color="#ED6E1E"/>
     <stop offset="0.721569" stop-opacity="1" stop-color="#DF5020"/>
     <stop offset="1" stop-opacity="1" stop-color="#D03123"/>
    </linearGradient>
 </defs>
 <g id="Layer_x0020_1">
  <metadata id="CorelCorpID_0Corel-Layer"/>
  <circle fill="url(#id0)" cx="5569466" cy="2234189" r="1330288"/>
  <g id="_2724805746416">
   <path fill="url(#id1)" d="M647604 5328668l-231467 -14373c-99759,26612 -199530,53219 -299301,79826 145494,208336 317539,354792 512708,447365l18060 -512818z"/>
   <path fill="url(#id2)" d="M0 4817027c133885,288240 365495,495565 643281,634348l14804 -420366 -658085 -213982z"/>
   <path fill="url(#id3)" d="M674271 4571343c-53434,-48244 -103441,-100987 -148738,-157910 39188,137732 84889,268676 140595,389199l8143 -231289z"/>
  </g>
  <g id="_2724805747344">
   <path fill="url(#id4)" d="M2181498 3821254c98902,-55336 197805,-110678 296708,-166014 -205744,-409830 -465055,-587701 -675056,-619062 -95055,-14196 -228890,-10177 -292485,96691 -38205,64204 -20775,124758 53069,149425 240616,80356 304084,147273 416680,249194 69244,62667 135366,150149 201084,289766z"/>
   <path fill="url(#id5)" d="M2478206 3655240c4257,-2454 8525,-4909 12781,-7363 -191852,-432053 -365870,-665476 -527959,-773445 -256382,-170768 -625978,-198149 -779023,49299 -32881,53169 -70566,147849 -65386,198895 22305,52970 149551,-149966 305697,-156284 71976,-2908 141348,26827 210548,75403 56127,-15518 117699,-13124 168286,-5567 210001,31361 469312,209232 675056,619062z"/>
   <path fill="url(#id6)" d="M757181 2839671c-112612,237658 -118229,364455 -74192,370166 17121,-4655 24655,-21399 33992,-37978 126029,-223666 254944,-421234 541034,-428719 54026,-1416 106653,3770 158092,14594 170735,-43534 382195,6971 546921,116698 162089,107969 336107,341392 527959,773445 46696,-27994 93386,-55994 140082,-83994 -267117,-432025 -386374,-969493 -1068711,-1105434 -439704,-32367 -635807,161984 -805177,381222zm1212674 249604l0 0c2521,1222 5041,2460 7568,3731 -2527,-1271 -5047,-2509 -7568,-3731zm223655 161381c-597,-580 -1200,-1161 -1797,-1747 597,586 1200,1167 1797,1747zm-22604 -21454c-774,-708 -1543,-1410 -2311,-2112 768,702 1537,1404 2311,2112zm-22621 -20216c-868,-747 -1736,-1504 -2604,-2250 868,746 1736,1503 2604,2250zm-8873 -7601c-763,-653 -1537,-1294 -2305,-1941 768,647 1542,1288 2305,1941zm-14091 -11698c-790,-636 -1575,-1282 -2360,-1918 785,636 1570,1282 2360,1918zm-8425 -6783c-1028,-812 -2051,-1620 -3073,-2427 1022,807 2045,1615 3073,2427zm-22477 -17292c-1155,-857 -2300,-1708 -3444,-2554 1144,846 2289,1697 3444,2554zm-9176 -6744c-1106,-807 -2217,-1592 -3323,-2383 1106,791 2217,1576 3323,2383zm-13323 -9447c-1178,-830 -2361,-1648 -3544,-2460 1183,812 2366,1630 3544,2460zm-9155 -6291c-1227,-830 -2460,-1648 -3687,-2471 1227,823 2460,1641 3687,2471zm-13145 -8696c-1261,-813 -2521,-1642 -3776,-2449 1255,807 2515,1636 3776,2449zm-9210 -5887c-1299,-813 -2593,-1626 -3892,-2427 1299,801 2593,1614 3892,2427zm-9260 -5744c-1415,-863 -2819,-1697 -4223,-2549 1404,852 2808,1686 4223,2549zm-12969 -7723c-1354,-785 -2708,-1575 -4063,-2355 1355,780 2709,1570 4063,2355zm-9298 -5334c-1382,-780 -2758,-1548 -4135,-2306 1377,758 2753,1526 4135,2306zm-12770 -7027c-1409,-763 -2819,-1514 -4223,-2266 1404,752 2814,1503 4223,2266zm-9436 -4992c-1321,-685 -2648,-1365 -3975,-2039 1327,674 2654,1354 3975,2039z"/>
   <path fill="url(#id7)" d="M2183454 2410255c-133011,-68548 -250682,-101191 -356179,-105387 -156495,-6225 -328275,56049 -476941,156643 63838,-7385 134089,-8800 212024,-3062 682337,135941 801594,673409 1068711,1105434 34456,-22643 68907,-45292 103369,-67940 -90041,-505593 -269488,-873962 -550984,-1085688zm-1147099 387828c-39387,73502 -64142,149988 -69128,225557 -1383,20952 -3820,43738 16634,43711 4228,-1615 11376,-7358 21017,-16397 49714,-46607 115504,-193599 223755,-306316 -74082,5533 -137174,24417 -192278,53445z"/>
   <path fill="url(#id8)" d="M2732575 3485600l1847 10265 11 50c9193,-6357 18326,-12742 27353,-19188 70074,-50051 82694,-120175 152763,-170226 -80992,-235491 -234208,-382742 -406364,-506848l50 144c101484,187535 175616,417061 224302,685659l38 144z"/>
  </g>
  <g id="_2724805731216">
   <path fill="url(#id9)" d="M4735931 3012109c-80136,-130541 -314460,-129562 -461474,-236282 50958,434303 289102,835940 293447,1198853 1935,161299 -4599,313935 -21520,459859 132895,65038 258968,154345 372731,265608l12145 -299727c-2366,-148998 81854,-204755 241616,-179148l309915 -5810c-174975,-286162 -430859,-533046 -637277,-835642 -48587,-71229 -60992,-296477 -109583,-367711z"/>
   <path fill="#004B2F" d="M4699766 3570135c-53086,307174 -53628,613120 -125593,878418 122680,63639 239140,148120 344942,251594l12145 -299727c-1355,-85287 25672,-140004 78980,-166423 -98511,-159209 -239073,-348357 -310474,-663862z"/>
  </g>
  <path fill="url(#id10)" d="M2995889 3214077c120020,-95160 271739,-134642 446426,-184511 -196728,390532 -612318,665095 -740791,1004536 -30299,80046 -55551,159391 -76365,238105l-359104 2980 -314410 466161 -180038 -282513c-54225,-73999 -35844,-127908 -201455,-177528 11007,-43042 27762,-87289 51096,-132829 282054,-318440 809234,-523222 1185161,-792899 70068,-50267 119412,-91235 189480,-141502z"/>
  <path fill="#004B2F" d="M2530043 4272998c130004,-386253 392549,-697351 683094,-1021385 -220432,49321 -595186,819892 -936335,963799 -193798,81766 -356473,33810 -423545,294945 -2444,31383 -150,59764 6020,86050l92368 144941 314410 -466161 263988 -2189z"/>
  <path fill="url(#id11)" d="M4210110 1098773c146566,239703 324504,466918 417078,773406 169352,560636 72329,1392342 55413,2182520 -2532,151160 -17540,294365 -42207,430527 -477770,-282744 -1066710,-241090 -1492013,250583l-5108 -235170c-12090,-122696 -67558,-192494 -189160,-231168l-432760 3599c15479,-57890 32179,-116516 49946,-175998 86841,-192244 261357,-394705 359143,-558684 208575,-349762 493575,-383782 585866,-961224 6717,-157307 -66071,-267166 -127560,-371769 -67260,-114420 -126157,-221167 -178342,-342520 -211709,-580868 -499666,-1242884 -711375,-1823753 501048,-239515 1504434,760565 1711079,1059651z"/>
  <path fill="url(#id12)" d="M4247961 1184336c-53219,-89278 -117825,-177258 -185030,-264933 182847,-5335 240770,-115111 123762,-371111 119623,-10647 175959,73866 186938,132923 8546,46065 -8176,161541 -55297,185130 -41251,20664 -82607,67575 -156827,95663 61854,55712 233164,-8795 287991,-76061 33031,-40537 45806,-101711 28724,-193284 102425,32809 117577,90523 122746,130695 8038,62296 -73043,163233 -201814,201919 -44821,13477 -85193,602 -150032,13549 73833,79721 156091,109467 256216,33102 21858,55480 5528,94951 -16214,115056 -43545,40267 -145698,38542 -241163,-2648z"/>
  <path fill="url(#id13)" d="M4252168 1285705c72230,-67061 -108422,-264911 -179596,-375147 -157805,-214738 -333062,-391399 -532775,-551802 -78300,-55076 -152851,-111899 -240947,-145936 -208210,-80456 -244894,15302 -235485,230748 7916,181227 76006,416132 197712,531437 52815,43533 225949,-4467 374793,28320 361470,79637 436254,299119 585855,293768 19702,-702 24451,-3124 30443,-11388z"/>
  <path fill="#FF790C" d="M3377675 935927c-137124,-68720 -310717,-617321 -107178,-666262 97460,-7087 188529,28448 275243,93005 193588,162354 709723,644270 529380,770703 -102043,60334 -179099,-148285 -287643,-175843 -134951,-34274 -374643,9265 -409802,-21603z"/>
  <path fill="url(#id14)" d="M3270320 1944912c126659,34202 228790,10830 298245,-52826 42373,141065 186429,233711 222683,335355 34976,98074 43091,185136 46032,253363 5484,127434 -52954,211433 -160198,262269 -135903,4307 -19454,-132696 -111452,-323000 -66608,-137782 -217409,-285719 -295310,-475161z"/>
  <path fill="url(#id15)" d="M3034127 1711682c31162,116466 109052,193500 200802,227381 123906,45751 269179,19548 321817,-31239 60411,-58282 101772,-147821 95011,-329335 -4179,-112386 -16716,-260251 -85049,-457140 -34385,245469 -69145,342896 -186136,399432 -81600,39426 -310192,40095 -424618,-173952 -133177,46878 -194284,172741 -72053,391687 59328,19663 123973,21305 150226,-26834z"/>
  <path fill="#FEFEFE" d="M3402120 939973c-29962,-12659 -53910,-29360 -72666,-49017 -141624,-148380 -48316,-467997 105719,-495057 105951,-18618 355643,90423 458858,402113 11880,35866 49792,108511 12422,118638 -60140,16297 -173980,2244 -253933,7347 -83463,5323 -166931,10653 -250400,15976z"/>
  <path fill="url(#id16)" d="M3537547 626774c111170,-7562 207867,82871 212920,157202 5053,74325 -23279,107311 -54275,133747 -95685,8419 -132502,8032 -235380,15113 -62926,-23046 -98942,-57906 -103989,-132115 -5047,-74209 69554,-166390 180724,-173947z"/>
  <path fill="#1A110F" d="M3554662 703305c61163,-4163 113951,39575 117909,97703 3549,52229 -33572,98300 -85531,110103l-37862 2333c-52373,-5291 -94585,-45640 -98112,-97377 -3947,-58123 42428,-108611 103596,-112762z"/>
  <path fill="white" d="M3578853 669904c20465,-1387 38144,13262 39471,32710 1321,19453 -14208,36364 -34673,37751 -20492,1399 -38154,-13256 -39476,-32699 -1321,-19458 14197,-36363 34678,-37762z"/>
  <path fill="url(#id17)" d="M2987608 1405089c114570,227840 328307,241600 414910,198984 105249,-51804 208293,-195866 167158,-482326 -84529,-12073 -215042,-78327 -301109,-126211 -86453,-40493 -163338,-154317 -216308,-451224 -119069,-234828 -273695,-700171 -599537,-492099 -102292,65325 -126223,129235 -169425,215999 -205136,411963 126267,1455306 777398,1738449 -189398,-293845 -308788,-547944 -73087,-601572z"/>
  <path fill="url(#id18)" d="M2646641 1418600c-431444,-739000 -162614,-1190970 -57989,-1236671 60549,-26452 205114,57028 255458,302840 -57376,1520 -89743,19110 -120225,40576 -184328,134797 -128572,565959 -77244,893255z"/>
  <path fill="#000303" d="M2874769 287659c47801,-7324 86951,115803 127234,274016 -75701,-119716 -159242,-252136 -127234,-274016z"/>
  <path fill="#E31E24" d="M3583364 1119177c-43556,-14666 -87100,-29321 -130656,-43987 234877,-33544 268156,115874 274392,286731 -43667,-52783 -86062,-113907 -129722,-166694 -4672,-25352 -9337,-50704 -14014,-76050z"/>
  <path fill="url(#id19)" d="M8362961 4243655c4865,-10133 9746,-20946 14627,-32384 19365,-49813 34175,-105857 42870,-168894 36231,-160696 60030,-336400 77184,-520115 45092,170807 -9105,406878 -54137,636929 24047,11471 84287,-78150 180774,-269041 -38879,99838 -77742,199669 -116615,299506 -1548,31267 4058,60809 11581,90130 49930,28514 65381,66133 77051,104476 68216,-76072 127278,-162360 192664,-241583 2256,-1460 4235,-2433 5927,-2869 5682,-1465 13842,5202 5942,15484 -75237,93751 -143415,180680 -197181,253861 802,2681 1620,5362 2466,8032l-22793 330491c1189,-2422 2405,-4843 3643,-7281 57968,-113911 148490,-222008 211588,-303005 132718,-160851 196545,-347296 118627,-586397 -52683,-100484 -123846,-207253 -174997,-307212 -22494,-43959 -41118,-86609 -52605,-126825 60206,99903 123337,202919 178385,305658 31184,58200 59798,116306 83812,173698 65325,-164272 61223,-373096 -21145,-520618 -54347,-97327 -167805,-176937 -389747,-224026 5412,44142 10830,88284 16236,132437 -912,-1023 -1808,-2062 -2709,-3113 586,3997 1051,7883 1382,11654 -1763,-5440 -3488,-10852 -5202,-16247 -69709,-86681 -79532,-246359 -129854,-358845 -30244,-67581 -63479,-132232 -101175,-192510 -60964,-38774 -133736,-64490 -223208,-71716 -68316,-4195 -136626,-8402 -204937,-12598 -3035,29315 -6069,58631 -9110,87946 56259,34169 81766,81943 128744,104315 10133,4821 20570,8729 31371,11510 10869,812 22080,1066 33606,680 -3201,1216 -6275,2388 -9265,3532 3853,348 7750,542 11703,580 -20952,17458 -41903,34921 -62860,52379 235413,97930 339557,205236 447504,312281 -201748,-140601 -403103,-263916 -603131,-331071 -34749,46867 -69493,93734 -104243,140596 7253,33008 14511,66005 21764,99008 77443,27286 154880,54573 232312,81860 119766,10995 239527,21979 359287,32969 -266244,-768 -532470,-1531 -798714,-2294 -98820,10641 -241892,121054 -362836,181586 -52633,33473 -54208,69472 -39625,106261l124752 243098c1642,-868 3124,-2438 4434,-4727l60588 -242069c34257,76967 68509,153929 102756,230897 21310,-16999 42621,-34003 63937,-51008 -4759,-72506 -9524,-145018 -14284,-217530 28475,49963 56945,99909 85420,149872 46159,-23201 92313,-46408 138473,-69593 9950,-78372 19884,-156749 29829,-235120 23671,61068 47348,122126 71014,183189 171365,-50925 275088,58134 514095,-152768 11078,101003 -15948,317732 -140761,377999 -80976,39089 -112519,82739 -135748,128826 -12195,24180 -22079,49034 -35623,74242 -21952,67907 -149363,32434 -144416,166705 12328,13749 164560,-58277 248449,-89278 -46204,45535 -164615,140612 -249167,221505l471291 6545zm477560 156782l50 -67c17656,-21200 35042,-48453 50819,-78554 -15423,26198 -32643,52395 -50869,78621zm-892100 -1770960c-16131,-1200 -32881,-2598 -50322,-4296 199,1305 392,2604 608,3925 16844,122 33417,221 49714,371z"/>
  <path fill="#034C31" d="M8530384 3114732c-3775,-675 -7545,-1338 -11321,-2012 -51599,-142918 -83032,-318258 -178181,-395181 -109075,-88178 -259748,-100865 -442175,-102153 -19652,-119650 35103,-174168 14080,-254392 -19857,-75773 -80810,-112474 -120684,-205584 42135,-3211 63607,7071 76199,22157 20200,24213 -11415,34667 40859,74032 25213,18995 54202,23909 79621,21211 72567,112115 142027,78532 163973,52611 15551,-18381 29775,-66552 -31012,-158324 -82656,-230427 -120927,-404534 -238305,-498556 -143525,-114962 -348877,-86592 -558364,-101866 -240681,-465514 -607663,-554035 -1097136,-276962 -134239,12510 -255674,55253 -368519,118262 -234617,131010 -402781,461202 -630544,566081 -37447,24749 -36944,62197 -31073,78621 10100,28259 51146,45501 120667,30321 122557,-30813 245121,-61638 367678,-92452 -234319,211317 -251666,230256 4915,204816 -7248,33174 77089,14191 137229,1338 -74784,268764 -128628,505996 -64021,564953 37480,34208 114802,8431 251008,-105968 44059,147960 124399,92380 231091,-111031 27751,54861 104237,43218 143719,22118 51477,-27525 101750,-77073 120241,-198121 27054,-16104 54109,-32207 81169,-48305 25589,98317 -107505,216049 -87836,293580 20808,81926 288572,98831 454442,-201084 5191,34263 13792,49819 27419,60262 -19155,3693 -42572,10697 -49244,30238 -35772,104818 -63938,158076 -61992,206966 613,15639 3195,25507 7380,26065 -20316,2394 -37011,5998 -42052,16529 -21914,45795 -74563,121275 -48813,169043 15395,28570 58940,39836 130733,45209 -83358,39858 -125194,78012 -117886,108732 13207,55496 193218,80152 413462,128804 13942,53297 111269,53595 261268,20410 -181415,141712 -286520,119025 -331348,209741 -13853,28038 -16545,59620 -3521,96178 58266,104093 94132,204395 132182,250261 18956,22865 43274,29216 61583,21715 22206,-9094 42478,-41074 60367,-101352 74463,150563 144260,88328 197910,18149 8132,-10636 1134,-18348 9282,-28807 47818,-19631 133465,-57067 187601,-94171 15904,-10902 7076,-39089 21604,-49598 22510,29205 80196,-7695 52644,16490 -110883,97344 -150309,185849 -167827,237757 -25855,76598 31742,253087 280445,35535 15915,-13914 35954,-1122 38901,2576 -26695,20587 -1531,53219 -29072,63473 -164660,61274 -198729,185833 -103370,240124 -42859,32991 -76940,63932 -103563,92418l109473 1521c84552,-80893 202963,-175970 249167,-221505 -83889,31001 -236121,103027 -248449,89278 -4947,-134271 122464,-98798 144416,-166705 13544,-25208 23428,-50062 35623,-74242 23229,-46087 54772,-89737 135748,-128826 124813,-60267 151839,-276996 140761,-377999 -239007,210902 -342730,101843 -514095,152768 -23666,-61063 -47343,-122121 -71014,-183189 -9945,78371 -19879,156748 -29829,235120 -46160,23185 -92314,46392 -138473,69593 -28475,-49963 -56945,-99909 -85420,-149872 4760,72512 9525,145024 14284,217530 -21316,17005 -42627,34009 -63937,51008 -34247,-76968 -68499,-153930 -102756,-230897 -20946,83684 -41887,167368 -62833,251047 -42312,-82452 -84629,-164892 -126941,-247349 -14583,-36789 -13008,-72788 39625,-106261 120944,-60532 264016,-170945 362836,-181586 266244,763 532470,1526 798714,2294 -119760,-10990 -239521,-21974 -359287,-32969 -77432,-27287 -154869,-54574 -232312,-81860 -7253,-33003 -14511,-66000 -21764,-99008 34750,-46862 69494,-93729 104243,-140596 200028,67155 401383,190470 603131,331071 -107947,-107045 -212091,-214351 -447504,-312281 20957,-17458 41908,-34921 62860,-52379 -24169,-243 -46431,-6318 -67415,-16302 -46978,-22372 -72485,-70146 -128744,-104315 3041,-29315 6075,-58631 9110,-87946 68311,4196 136621,8403 204937,12598 89472,7226 162244,32942 223208,71716 37696,60278 70931,124929 101175,192510 51853,115902 60704,281927 136383,366551 -5406,-44153 -10824,-88295 -16236,-132437 221942,47089 335400,126699 389747,224026 82368,147522 86470,356346 21145,520618 -24014,-57392 -52628,-115498 -83812,-173698 -55048,-102739 -118179,-205755 -178385,-305658 11487,40216 30111,82866 52605,126825 51151,99959 122314,206728 174997,307212 77918,239101 14091,425546 -118627,586397 -63098,80997 -153620,189094 -211588,303005 -1238,2438 -2454,4859 -3643,7281 -2360,34268 -14964,158081 8237,45816 78300,-191691 316798,-374101 363322,-583986 22676,-102286 33346,-201101 12339,-298998 71876,-224567 72208,-405313 -3361,-539574 -72788,-129313 -215977,-215506 -433474,-256204zm-166406 1128934c26070,-57564 45850,-124205 56480,-201289 36231,-160696 60030,-336400 77184,-520115 45092,170807 -9105,406878 -54137,636929 24047,11471 84287,-78150 180774,-269041 -38879,99838 -77742,199669 -116615,299506 -1548,31267 4058,60809 11581,90130l-265 -149 -962 -547 -3660 -2007 -232 -127 -232 -122c-1327,-707 -2681,-1404 -4052,-2100l-205 -105 -387 -194c-1304,-652 -2625,-1304 -3974,-1946l-299 -143 -132 -61c-1465,-691 -2952,-1382 -4467,-2062l-238 -111 -359 -160c-1404,-625 -2830,-1255 -4279,-1869l-376 -160 -155 -61c-1625,-685 -3278,-1371 -4964,-2045l-83 -33 -331 -133c-1510,-603 -3041,-1194 -4594,-1780l-465 -177 -320 -116c-1576,-592 -3173,-1183 -4804,-1758l-459 -166 -298 -99 -382 -133 -4538 -1564 -559 -188 -1116 -365 -4865 -1565 -254 -83c-3881,-1210 -7878,-2393 -12013,-3532l-310 -88 -204 -56c-4268,-1183 -8674,-2311 -13223,-3416l-144 -39c-2217,-536 -4472,-1061 -6755,-1581l-321 -72c-2327,-525 -4693,-1039 -7092,-1548l-78 -16 -7369 -1504 -105 -22 -7678 -1454 -47669 -663zm232318 140596c68216,-76072 127278,-162360 192664,-241583 2256,-1460 4235,-2433 5927,-2869 5682,-1465 13842,5202 5942,15484 -75237,93751 -143415,180680 -197181,253861l-116 -387 -116 -387 -116 -393 -116 -387 -22 -66 -94 -321 -117 -387 -116 -392 -110 -387 -116 -387 -116 -387 -116 -393 -111 -387 -55 -188 -61 -199 -116 -392 -111 -387 -116 -387 -116 -393 -110 -387 -117 -386 -110 -393 -94 -310 -22 -77 -116 -387 -111 -392 -116 -387 -111 -393 -116 -387 -110 -387 -116 -392 -111 -387 -16 -44 -100 -349 -110 -387 -117 -387 -116 -392 -110 -387 -116 -393 -111 -387 -116 -387 -50 -165 -61 -227 -116 -387 -116 -393 -110 -386 -116 -393 -116 -387 -111 -387 -116 -392 -83 -282 -33 -105 -116 -393 -116 -387 -111 -392 -116 -387 -116 -387 -116 -393 -116 -387 -116 -387 -6 -16 -110 -376 -117 -387 -116 -393 -116 -387 -116 -387 -121 -392 -117 -387 -116 -387 -44 -138 -77 -254 -116 -387z"/>
  <path fill="url(#id20)" d="M5959881 2084015c5904,-5312 11919,-10514 18127,-15534 20426,-20547 48210,-43589 82025,-68006 50958,-34401 110186,-65547 178933,-91965 171482,-82568 363245,-155715 565827,-223843 -204804,-2731 -456464,119616 -703802,230416 -19426,-22936 65414,-112314 254695,-268240 -102120,69002 -204240,138009 -306360,207011 -93818,27220 -187491,-5092 -286714,21824 73390,-120412 175881,-225971 263822,-338954 1039,-2836 1597,-5246 1631,-7186 127,-6557 -9592,-13583 -19061,-2256 -166523,207972 -275238,297726 -354583,360868 -136897,108936 -443938,226430 -411715,122364 7712,-24910 89959,-32566 164041,-93928 112850,-93469 210349,-220603 284691,-310744 145620,-187032 338694,-306411 629405,-286587 127549,29929 267167,78139 393710,106537 55657,12493 108787,21150 157246,22726 -128926,-38216 -262158,-78742 -392881,-110617 -74059,-18060 -147312,-33340 -218525,-43849 167667,-115028 404302,-166920 592909,-117560 124443,32566 244845,133890 357828,361398 -51251,6054 -102502,12107 -153759,18155 1399,713 2820,1404 4235,2089 -4655,448 -9171,990 -13505,1648 6600,442 13173,851 19724,1249 116571,52069 299324,19625 439765,43755 57436,9867 284602,47613 329274,70212 166943,84441 218387,359552 272485,529574 50593,39221 31836,87659 19017,95658 -33926,21150 -82181,-4323 -130502,-42683 -22483,-17850 -24788,13528 -45866,-6501 -10819,-10282 -34800,-5721 -49029,-26441 -18254,-26579 -10277,-67531 -37082,-88007 -53722,-51682 -114492,-66392 -152387,-111214 -8176,-9663 -15402,-19901 -21455,-30841 -3842,-11548 -7153,-23616 -9834,-36198 -503,3793 -990,7441 -1476,10985 -1427,-4075 -2704,-8248 -3809,-12510 -14042,27386 -28083,54777 -42124,82169 -173963,-228387 -323095,-312149 -472950,-400117 193218,163670 370304,330811 498346,508517 55634,64706 110169,139015 161862,238122 -20758,94619 -27253,260202 -43550,399963 -4218,36153 -39349,28475 -87742,30421 -31825,1277 -34163,4151 -60781,8248 -30476,4693 -40902,9873 -67371,15710 -20465,4517 -30205,30803 -56088,22024 2471,-62522 22361,-130816 22218,-192476 27668,-18348 55336,-36696 83004,-55049 -44546,-13887 -79649,-45784 -105570,-59797 -40294,-21792 -58603,-25789 -57271,-47868 2471,-40991 131850,-78499 198607,-124299 -63440,4362 -126880,8723 -190315,13091 -52555,-79467 -105111,-158933 -157666,-238399 -49549,-138291 -90252,-272971 -138667,-410151 72683,287953 145361,575911 218039,863863 14655,109821 -71279,294464 -106924,441694 -23561,65999 -63739,77409 -109169,71555l-307848 -69455c536,-2006 1907,-4030 4130,-6064l256696 -130877c-96056,-16314 -192106,-32627 -288157,-48935 13428,-27651 26856,-55308 40284,-82960 83070,-14406 166141,-28812 249211,-43218 -64026,-17342 -128052,-34684 -192079,-52025 13715,-56221 27425,-112436 41140,-168651 85713,-31903 171426,-63805 257139,-95708 -75254,-9149 -150513,-18298 -225767,-27447 11206,-199210 -139789,-282059 33622,-597635 -116914,15263 -354074,102977 -388370,254325 -22251,98179 -62981,144100 -108693,181675 -23987,19713 -49349,37126 -74132,58586 -70665,42075 3710,170409 -149076,201272 -18828,-9630 21344,-193831 33683,-292999 -61721,98859 -215147,428244 -287267,460495 -18132,8109 -42909,19083 -44960,-6474 -2725,-34053 44667,-117095 101407,-186191 -298,-12013 -6169,-16612 -16877,-14771 -181442,194776 -282070,276924 -319584,236082 -20271,-22068 -13621,-179640 56917,-362542 30322,-78632 51561,-168248 125648,-246509zm1806688 786016c-6440,37188 -14207,70257 -23947,96576 -17348,46861 -99014,9154 -213103,36021 -77,-34562 -13615,-64673 -19989,-97156 3306,-1261 6711,-2571 10138,-3649 38813,-12244 79732,-23433 120076,-36187 38652,-12228 19945,-4245 47072,-6163 26877,-1902 56220,7960 79753,10558zm-2044777 -1319581l55 -72c19161,-24832 45204,-50996 74900,-76199 -25384,23766 -50288,49460 -74955,76271z"/>
  <path fill="#45AA33" d="M8197865 3059036c-148446,-68598 -246923,-154360 -433789,-209757 -55574,-16474 -132779,16999 -184367,34473 -85171,28845 -121347,24578 -217353,59477 -27784,10099 -16783,41820 -28099,70029l-65022 162028c29614,38106 71080,2936 107599,-5179 53396,-11869 108765,-42904 162161,-54773 9817,-24810 19635,-49620 29459,-74430 19326,32052 51516,53501 67564,71075 24954,27320 31516,40797 49139,35755 32715,-9370 39554,-116603 64485,-176743 7994,50034 15993,100069 23992,150098 73844,26353 147694,52705 221538,79057 74718,8237 152846,15501 227563,23738 -7153,-55275 -17717,-109572 -24870,-164848z"/>
  <g id="_2725037141232">
   <path fill="#362629" d="M6764599 2428680c-56376,-32698 -112757,-65403 -169132,-98101 23859,-69262 47718,-138523 71572,-207784 7706,-5362 17176,-8707 27602,-10498 77172,53578 140607,108826 168042,168441l-98084 147942z"/>
   <path fill="url(#id21)" d="M6741115 2399077c-35136,-36911 -49675,-48028 -108632,-63805 19636,-57005 39476,-127682 59112,-184688 11670,-8126 26269,-10995 41366,-10608 46829,35358 86194,71622 111928,109545 -33119,48730 -72286,102059 -103774,149556z"/>
  </g>
  <g id="_2725037141040">
   <path fill="#362629" d="M6664850 2643131c-56375,-32704 -112751,-65403 -169126,-98107 23853,-69261 47713,-138522 71572,-207778 32389,-22544 96045,-9542 130474,5506 43257,18911 99179,64474 95459,106741 -42793,64546 -85586,129092 -128379,193638z"/>
   <path fill="url(#id22)" d="M6641367 2613528c-35131,-36911 -49670,-48028 -108627,-63810 19636,-57006 39470,-127683 59106,-184688 26662,-18552 68565,-9685 96902,2703 35606,15562 70947,44330 67890,79124 -35225,53124 -80046,113541 -115271,166671z"/>
  </g>
  <g id="_2725037113872">
   <path fill="#362629" d="M6523762 2886411c-58503,-37967 -117007,-75934 -175511,-113895 29398,-72766 58802,-145532 88201,-218299 35921,-22366 103314,-5074 139318,12848 45231,22521 102524,74209 96189,119196 -49399,66719 -98798,133432 -148197,200150z"/>
   <path fill="url(#id23)" d="M6500284 2853508c-35534,-41328 -50471,-53987 -112684,-73999 24196,-59891 49377,-134388 73573,-194279 29564,-18409 73911,-6695 103547,8054 37231,18536 73446,51174 68227,88206 -40659,54911 -92004,117107 -132663,172018z"/>
  </g>
  <g id="_2725037115920">
   <path fill="#362629" d="M6387628 3105036c-58504,-37967 -117008,-75929 -175511,-113896 29403,-72766 58802,-145532 88200,-218298 35922,-22367 103314,-5075 139319,12853 45236,22516 102529,74209 96188,119191 -49398,66718 -98797,133431 -148196,200150z"/>
   <path fill="url(#id24)" d="M6364150 3072132c-35535,-41328 -50472,-53987 -112685,-73998 24202,-59892 49377,-134383 73579,-194279 29564,-18409 73911,-6695 103541,8060 37232,18530 73446,51173 68228,88200 -40659,54911 -92004,117107 -132663,172017z"/>
  </g>
  <g id="_2725037116496">
   <path fill="#362629" d="M6254136 3341903c-60163,-39045 -120330,-78090 -180498,-117135 30239,-74833 60472,-149667 90710,-224501 36939,-23008 106250,-5218 143277,13212 46519,23158 105443,76321 98925,122586 -50803,68609 -101606,137223 -152414,205838z"/>
   <path fill="url(#id25)" d="M6229994 3308065c-36546,-42505 -51908,-55524 -115885,-76105 24882,-61594 50776,-138207 75663,-199801 30404,-18934 76011,-6883 106487,8286 38288,19061 75536,52628 70168,90711 -41814,56469 -94618,120435 -136433,176909z"/>
  </g>
  <g id="_2725037117808">
   <path fill="#362629" d="M6121649 3576974c-60167,-39045 -120335,-78090 -180502,-117129 30238,-74840 60477,-149673 90710,-224507 36944,-23002 106250,-5218 143277,13218 46518,23157 105442,76315 98925,122585 -50803,68609 -101606,137223 -152410,205833z"/>
   <path fill="url(#id26)" d="M6097503 3543136c-36546,-42500 -51903,-55518 -115885,-76105 24887,-61594 50781,-138202 75662,-199796 30410,-18934 76017,-6888 106493,8287 38288,19060 75531,52627 70168,90704 -41820,56475 -94618,120441 -136438,176910z"/>
  </g>
  <g id="_2725037118928">
   <path fill="#362629" d="M5965442 3809916c-57873,-42251 -115741,-84502 -173615,-126748 34496,-73020 68985,-146041 103481,-219061 38221,-20935 106443,602 142381,21023 45148,25650 100965,81921 91805,127732 -54684,65685 -109368,131369 -164052,197054z"/>
   <path fill="url(#id27)" d="M5943258 3774835c-34075,-44413 -48675,-58244 -111413,-82280 28393,-60102 58648,-135129 87034,-195230 31461,-17231 76338,-2714 105913,14091 37160,21112 72440,56646 64900,94348 -45010,54064 -101424,115006 -146434,169071z"/>
  </g>
  <g id="_2725037121296">
   <path fill="#362629" d="M5823028 4021116c-57874,-42245 -115741,-84496 -173615,-126748 34495,-73020 68985,-146040 103480,-219061 38221,-20935 106443,608 142381,21023 45148,25651 100965,81921 91805,127732 -54683,65685 -109367,131370 -164051,197054z"/>
   <path fill="url(#id28)" d="M5800844 3986035c-34075,-44413 -48675,-58244 -111413,-82280 28392,-60101 58647,-135128 87034,-195230 31460,-17231 76337,-2714 105912,14091 37160,21112 72440,56647 64900,94348 -45009,54065 -101424,115006 -146433,169071z"/>
  </g>
  <path fill="url(#id29)" d="M5439948 4206014l-108145 -123879c75115,-198287 114818,-395711 91854,-591615 66641,130839 112922,421218 122353,575346 124205,-181802 219172,-446569 259063,-655011 29669,163421 52970,380907 42693,481639 223633,-73612 436453,-303867 660086,-377474 -149529,100943 -303983,437531 -430986,618350 173986,-69676 349044,-188585 525163,-194672 -187551,81572 -236165,182742 -371521,300263l-129655 -27015c-365694,-8978 -498501,1509 -660905,-5932z"/>
  <g id="_2689849556720">
   <path fill="#362629" d="M7919730 3852803c-28995,-47774 -57995,-95542 -86990,-143316 48238,-42760 96482,-85514 144720,-128273 8220,-918 16916,403 25672,3300 35878,72075 60522,139805 55718,196175l-139120 72114z"/>
   <path fill="url(#id30)" d="M7914573 3820790c-10918,-42296 -17232,-56652 -55536,-92651 39709,-35192 85487,-80660 125189,-115852 12455,-1399 24866,2383 36259,8834 20537,45888 34971,89422 38254,128649 -46441,23428 -99505,47868 -144166,71020z"/>
  </g>
  <g id="_2689849444864">
   <path fill="#362629" d="M7793524 3945321c-31151,-46469 -62307,-92938 -93458,-139402 46221,-44827 92446,-89654 138672,-134482 34330,-5378 79013,28531 99998,53087 26363,30852 52047,87133 32328,118549 -59178,34081 -118356,68167 -177540,102248z"/>
   <path fill="url(#id31)" d="M7786907 3913562c-12847,-41787 -19813,-55856 -59714,-90158 38044,-36894 81683,-84319 119727,-121214 28254,-4428 57547,18132 74822,38343 21698,25396 37940,60947 21709,86802 -48708,28049 -107836,58172 -156544,86227z"/>
  </g>
  <g id="_2689850028112">
   <path fill="#362629" d="M7639783 4084418c-34429,-49072 -68864,-98140 -103293,-147212 48448,-49018 96897,-98041 145345,-147059 36629,-6517 85259,28807 108289,54640 28940,32455 57741,92153 37359,126228 -62567,37801 -125134,75602 -187700,113403z"/>
   <path fill="url(#id32)" d="M7631955 4050559c-14716,-44468 -22505,-59372 -66022,-95221 39880,-40350 85497,-92098 125371,-132442 30150,-5362 62036,18143 80998,39410 23815,26711 42030,64418 25258,92462 -51500,31118 -114106,64673 -165605,95791z"/>
  </g>
  <g id="_2689850033088">
   <path fill="#362629" d="M7477721 4216794c-36618,-47542 -73241,-95089 -109859,-142636 46159,-51074 92324,-102148 138489,-153222 36292,-8093 86471,25098 110650,49913 30377,31184 61860,89589 43053,124515 -60776,40477 -121557,80953 -182333,121430z"/>
   <path fill="url(#id33)" d="M7468368 4183294c-16723,-43788 -25175,-58349 -70273,-92292 37994,-42035 81207,-95713 119207,-137754 29869,-6661 62788,15451 82689,35877 25004,25667 44911,62556 29432,91302 -50024,33318 -111032,69554 -161055,102867z"/>
  </g>
  <g id="_2689850041744">
   <path fill="#362629" d="M7225309 4227856l-14240 -15241c42135,-56696 84264,-113404 126405,-170100 36325,-11741 90998,17480 118229,40604 34213,29039 72258,85862 56508,123420l-30620 24877 -256282 -3560z"/>
   <path fill="url(#id34)" d="M7245553 4228137l-1852 -1144c34672,-46668 73535,-105758 108207,-152426 29907,-9668 65800,9846 88211,28879 28166,23903 52224,59792 39250,90716 -14639,11891 -30311,24163 -46370,36579l-187446 -2604z"/>
  </g>
  <g id="_2725091638528">
   <path fill="#362629" d="M7063452 4711563c-48271,-39040 -96542,-78079 -144819,-117118 33572,-61920 67144,-123840 100716,-185760 34269,-16585 92557,4914 122818,24113 38016,24114 83816,75226 73612,114592 -50776,54722 -101551,109450 -152327,164173z"/>
   <path fill="url(#id35)" d="M7045873 4680213c-27469,-39929 -39493,-52528 -92888,-75972 27629,-50964 57613,-114802 85243,-165766 28210,-13654 66530,791 91434,16590 31289,19852 60245,52130 51843,84525 -41793,45048 -93840,95580 -135632,140623z"/>
  </g>
  <path fill="url(#id36)" d="M6596191 4405639c17447,4721 41682,16893 68764,36474 3853,-66337 24108,-123099 86592,-168275 625,-90185 -8723,-177313 -35988,-258968 -28248,148915 -52804,270240 -119368,390769zm755302 -176031c17054,-34435 33688,-69416 49991,-104840 -62280,32848 -122320,67089 -179602,103038l129611 1802zm-368297 -5114c17347,-92999 29365,-188341 33942,-286940 -43102,101672 -92656,196446 -147688,285359l113746 1581z"/>
  <g id="_2725091638016">
   <path fill="#284289" d="M1551340 6363000l-747302 -4456 122187 -1940865 625115 0 390117 575567 408923 -553267c208857,0 416293,-663 625116,-4456l65784 1923021 -770825 4456 4727 -459544 -347833 459544 -376009 -499728 0 499728zm2520253 -1879111c583412,48757 905904,360740 939371,882564 33467,521828 -352935,943859 -945872,949995 -592931,6136 -984612,-444165 -984612,-931587 0,-487416 407701,-949730 991113,-900972zm7435 743875c99915,19464 149120,91318 143874,203743 -5213,112463 -81041,197049 -183698,189259 -102723,-7816 -160933,-110379 -150646,-214926 10321,-104608 90595,-197507 190470,-178076zm2061743 -847433l-1039418 5512 6463 1955150 826393 12239 0 -778382c574412,-119390 877478,-421411 865034,-710696 -14002,-326660 -349109,-485503 -658472,-483823zm-194505 1002286l-3544 -393694c497782,-23157 371703,394882 3544,393694zm2516084 -990572l-1565453 7618 -16054 1950932 1501234 -7623 -13903 -678263 -740730 0 -4727 -93458 400687 -4057 2609 -311519 -398569 658 0 -132679 770687 -15241 64219 -716368z"/>
   <g>
    <path fill="url(#id37)" d="M1486911 6331788l-747298 -4450 79129 -1256864c631644,243854 1330460,410355 2132110,496819l25998 760045 -770824 4450 4726 -459538 -347832 459538 -376009 -499722 0 499722zm3432867 -705211c-98278,379143 -441733,653717 -919110,658665 -500706,5478 -857776,-315150 -956850,-708313 569541,56508 1190693,73363 1875960,49648zm123608 683210l826393 12239 0 -759288c-285205,27613 -560614,48133 -828649,59250l2256 687799zm1780153 -857594l-7126 867196 1501234 -7623 -13903 -678263 -740730 0 -4726 -93458 400686 -4057 2018 -240394c-398426,56115 -776386,109555 -1137453,156599z"/>
    <path fill="url(#id38)" d="M818742 5070474l43053 -684007 625116 0 390122 575568 408918 -553267c208856,0 416292,-658 625115,-4451l39786 1162976c-801650,-86464 -1500466,-252965 -2132110,-496819zm2225076 506455c569541,56508 1190693,73363 1875960,49648 23804,-91778 33290,-189658 26756,-291330 -33467,-521829 -355959,-833812 -939371,-882570 -583411,-48758 -991113,413556 -991113,900978 0,75840 9519,150795 27768,223274zm1997312 45059c268035,-11117 543444,-31637 828649,-59250l0 -19099c574412,-119390 877478,-421406 865040,-710691 -14008,-326660 -349115,-485503 -658478,-483823l-1039417 5512 4206 1267351zm1782409 -169795c361067,-47044 739027,-100484 1137453,-156599l591 -71125 -398569 658 0 -132685 770687 -15241 64225 -716362 -1565459 7618 -8928 1083736zm-2808940 -255635c99914,19464 149120,91313 143874,203743 -5213,112463 -81042,197043 -183699,189259 -102722,-7816 -160933,-110384 -150645,-214926 10321,-104608 90594,-197507 190470,-178076zm1867242 154853l-3549 -393699c497782,-23157 371703,394887 3549,393699z"/>
   </g>
  </g>
  <g id="_2725091641344">
   <path fill="#89252E" d="M7767890 6529887c-244678,-10829 -480539,-3659 -705195,26192l-5561 1643986c4168,74756 28547,66188 81976,70046l908529 14395c274956,-5351 479401,-86199 568801,-289295 46956,-106864 49780,-206845 12505,-317301 -72341,-214285 -291762,-345721 -575485,-440937 162083,-45822 275127,-89621 307947,-216562 86703,-335384 -285414,-456637 -593517,-490524zm83740 866179l10221 333487c363427,65049 412229,-278659 -10221,-333487zm-47669 -523122l10227 263075c291922,-5312 255657,-217430 -10227,-263075z"/>
   <path fill="#89252E" d="M2671252 6944969l0 -378574 690303 2930c-11802,397347 93270,674680 429306,595341l-28531 -610776 629787 -5141 5152 908745c2399,415541 -291772,763207 -772350,789222l-767193 -5146 -28625 -545406c160851,13477 612733,94685 704212,-30880 -441357,-597 -858799,-462270 -862061,-720315z"/>
   <polygon fill="#89252E" points="2608078,6509334 712929,6561337 773058,7283442 1299376,7276455 1347006,8202044 2068526,8206958 2073993,7234314 2609648,7224485 "/>
   <path fill="#89252E" d="M5448716 6546129l-956679 4798 5948 1703606 760609 10669 0 -678246c528689,-104027 807631,-367186 796171,-619256 -12886,-284630 -321320,-423036 -606049,-421571zm-179021 873332l-3262 -343040c458156,-20183 342116,344079 3262,343040z"/>
   <polygon fill="#89252E" points="6927987,6547008 6163199,6550927 6169147,8254533 6929756,8265202 6929756,7586956 "/>
   <path fill="url(#id39)" d="M5391981 6504005l-956679 4804 2941 845592c224440,-35043 466123,-74911 739691,-119550l33616 -5407 1410 147893 -3262 -343040c216121,-9519 304399,66514 301872,149386 145533,-20985 290523,-40073 434391,-57233 37486,-65624 55082,-133608 52075,-200868 -12891,-284635 -321325,-423042 -606055,-421577zm-2840638 -36795l-1895149 52003 60129 722105 526318 -6987 15130 293806c279357,7358 529320,11383 757536,12184l1951 -348131 535655 -9829 -1570 -715151zm63175 435635l0 -378574 690302 2930c-11802,397347 93270,674680 429306,595341l-28531 -610776 629787 -5146 4893 862928c-439190,67205 -817637,115012 -1250713,142663 -270914,-152951 -472711,-430229 -475044,-609366zm5102044 -421948c-240366,-10636 -472065,-3593 -692763,25723l-1730 505338c264900,1526 512979,12278 738729,32400l1249 31991 -10044 -258449c214976,37110 277250,184605 132453,238615 109771,11902 213566,26241 310733,43003 52108,-32025 89207,-76205 104431,-136743 82811,-328584 -280379,-448593 -583058,-481878z"/>
   <path fill="url(#id40)" d="M6867438 6512231l-764789 3914 2079 595479c259776,-29083 515383,-51870 763616,-68288l-906 -531105z"/>
   <path fill="url(#id41)" d="M4438243 7354401l3008 858008 760608 10669 0 -678240c387663,-76293 641015,-238095 744102,-418388 -143868,17160 -288858,36248 -434391,57233 -2847,92788 -119589,194201 -298610,193654l-1410 -147893 -33616 5407c-273568,44639 -515251,84507 -739691,119550zm-3180472 173736c279357,7358 529320,11383 757536,12184l-3522 624519 -721519 -4915 -32495 -631788zm1831791 -15926c433076,-27651 811523,-75458 1250713,-142663l254 45822c2399,415535 -291767,763207 -772345,789222l-767193 -5146 -28630 -545406c160856,13483 612744,94685 704217,-30875 -134974,-171 -267681,-43550 -387016,-110954zm3932507 -500253c264900,1526 512979,12278 738729,32400l1249 31991c50731,-917 91285,-8220 122375,-19834 109805,11902 213600,26241 310767,43003 -51588,31703 -118887,53611 -198082,76000 278720,93540 496344,223953 565335,433158 35186,106648 32372,228901 -12278,332066 -85785,198166 -288666,278942 -558784,284205l-892515 -14147c-52483,-3792 -76442,4627 -80538,-68813l3742 -1130029zm776762 319850l10045 327605c357014,63899 404959,-273740 -10045,-327605z"/>
   <path fill="url(#id42)" d="M6104728 7111624l3875 1108126 760604 10670 0 -678241 -863 -508843c-248233,16418 -503840,39205 -763616,68288z"/>
  </g>
 </g>
</svg>
